<svg xmlns="http://www.w3.org/2000/svg" viewBox="0 0 400 400" role="img" aria-label="Placeholder de conjuntos">
  <defs>
    <linearGradient id="bg" x1="0" y1="0" x2="1" y2="1">
      <stop offset="0%" stop-color="hsl(347 45% 94%)" />
      <stop offset="100%" stop-color="hsl(347 40% 85%)" />
    </linearGradient>
  </defs>
  <rect width="400" height="400" fill="url(#bg)" />
  <g fill="none" stroke="hsl(347 30% 38%)" stroke-width="6" stroke-linecap="round" stroke-linejoin="round">
    <path d="M92 128 a30 30 0 0 0 60 0" />
    <path d="M152 128 a30 30 0 0 0 60 0" />
    <path d="M92 128 h120" />
    <path d="M92 128 l-22 -38" />
    <path d="M212 128 l22 -38" />
    <path d="M232 196 h116" />
    <path d="M232 196 c0 34 14 48 30 48 c17 0 22 -16 30 -16 c8 0 13 16 30 16 c16 0 28 -14 28 -48" />
  </g>
  <text x="200" y="300" text-anchor="middle" font-family="system-ui, sans-serif" font-size="18" fill="hsl(347 25% 35%)">Foto próximamente</text>
</svg>
